<?xml version="1.0" encoding="UTF-8" standalone="no"?>
<!DOCTYPE svg PUBLIC "-//W3C//DTD SVG 1.1//EN"
 "http://www.w3.org/Graphics/SVG/1.1/DTD/svg11.dtd">
<!-- Generated by graphviz version 2.43.0 (0)
 -->
<!-- Title: KZTE_RailHub_TB Pages: 1 -->
<svg width="736pt" height="514pt"
 viewBox="0.00 0.00 736.00 514.00" xmlns="http://www.w3.org/2000/svg" xmlns:xlink="http://www.w3.org/1999/xlink">
<g id="graph0" class="graph" transform="scale(1 1) rotate(0) translate(4 510)">
<title>KZTE_RailHub_TB</title>
<polygon fill="white" stroke="transparent" points="-4,4 -4,-510 732,-510 732,4 -4,4"/>
<!-- client -->
<g id="node1" class="node">
<title>client</title>
<path fill="none" stroke="black" d="M423,-506C423,-506 309,-506 309,-506 303,-506 297,-500 297,-494 297,-494 297,-482 297,-482 297,-476 303,-470 309,-470 309,-470 423,-470 423,-470 429,-470 435,-476 435,-482 435,-482 435,-494 435,-494 435,-500 429,-506 423,-506"/>
<text text-anchor="middle" x="366" y="-491.2" font-family="Helvetica,sans-Serif" font-size="11.00">Client (UAE)</text>
<text text-anchor="middle" x="366" y="-479.2" font-family="Helvetica,sans-Serif" font-size="11.00">USDT / USDC (Solana)</text>
</g>
<!-- railswap -->
<g id="node2" class="node">
<title>railswap</title>
<path fill="none" stroke="black" d="M435,-412C435,-412 297,-412 297,-412 291,-412 285,-406 285,-400 285,-400 285,-388 285,-388 285,-382 291,-376 297,-376 297,-376 435,-376 435,-376 441,-376 447,-382 447,-388 447,-388 447,-400 447,-400 447,-406 441,-412 435,-412"/>
<text text-anchor="middle" x="366" y="-397.2" font-family="Helvetica,sans-Serif" font-size="11.00">RailSwap</text>
<text text-anchor="middle" x="366" y="-385.2" font-family="Helvetica,sans-Serif" font-size="11.00">Route USDT/USDC → KZTE</text>
</g>
<!-- client&#45;&gt;railswap -->
<g id="edge1" class="edge">
<title>client&#45;&gt;railswap</title>
<path fill="none" stroke="black" d="M366,-469.88C366,-469.88 366,-422.07 366,-422.07"/>
<polygon fill="black" stroke="black" points="369.5,-422.07 366,-412.07 362.5,-422.07 369.5,-422.07"/>
</g>
<!-- wallet -->
<g id="node3" class="node">
<title>wallet</title>
<path fill="none" stroke="black" d="M430,-318C430,-318 302,-318 302,-318 296,-318 290,-312 290,-306 290,-306 290,-294 290,-294 290,-288 296,-282 302,-282 302,-282 430,-282 430,-282 436,-282 442,-288 442,-294 442,-294 442,-306 442,-306 442,-312 436,-318 430,-318"/>
<text text-anchor="middle" x="366" y="-303.2" font-family="Helvetica,sans-Serif" font-size="11.00">KZTE Wallet</text>
<text text-anchor="middle" x="366" y="-291.2" font-family="Helvetica,sans-Serif" font-size="11.00">User balances, transfers</text>
</g>
<!-- railswap&#45;&gt;wallet -->
<g id="edge2" class="edge">
<title>railswap&#45;&gt;wallet</title>
<path fill="none" stroke="black" d="M366,-375.88C366,-375.88 366,-328.07 366,-328.07"/>
<polygon fill="black" stroke="black" points="369.5,-328.07 366,-318.07 362.5,-328.07 369.5,-328.07"/>
</g>
<!-- gateway -->
<g id="node4" class="node">
<title>gateway</title>
<path fill="none" stroke="black" d="M444,-224C444,-224 288,-224 288,-224 282,-224 276,-218 276,-212 276,-212 276,-200 276,-200 276,-194 282,-188 288,-188 288,-188 444,-188 444,-188 450,-188 456,-194 456,-200 456,-200 456,-212 456,-212 456,-218 450,-224 444,-224"/>
<text text-anchor="middle" x="366" y="-209.2" font-family="Helvetica,sans-Serif" font-size="11.00">FastAPI Gateway</text>
<text text-anchor="middle" x="366" y="-197.2" font-family="Helvetica,sans-Serif" font-size="11.00">JWT, Idempotency, Webhooks</text>
</g>
<!-- wallet&#45;&gt;gateway -->
<g id="edge3" class="edge">
<title>wallet&#45;&gt;gateway</title>
<path fill="none" stroke="black" d="M366,-281.88C366,-281.88 366,-234.07 366,-234.07"/>
<polygon fill="black" stroke="black" points="369.5,-234.07 366,-224.07 362.5,-234.07 369.5,-234.07"/>
</g>
<!-- db -->
<g id="node5" class="node">
<title>db</title>
<path fill="none" stroke="black" d="M470.5,-130C470.5,-130 351.5,-130 351.5,-130 345.5,-130 339.5,-124 339.5,-118 339.5,-118 339.5,-106 339.5,-106 339.5,-100 345.5,-94 351.5,-94 351.5,-94 470.5,-94 470.5,-94 476.5,-94 482.5,-100 482.5,-106 482.5,-106 482.5,-118 482.5,-118 482.5,-124 476.5,-130 470.5,-130"/>
<text text-anchor="middle" x="411" y="-115.2" font-family="Helvetica,sans-Serif" font-size="11.00">PostgreSQL / Redis</text>
<text text-anchor="middle" x="411" y="-103.2" font-family="Helvetica,sans-Serif" font-size="11.00">Ledgers, state, queues</text>
</g>
<!-- gateway&#45;&gt;db -->
<g id="edge4" class="edge">
<title>gateway&#45;&gt;db</title>
<path fill="none" stroke="black" d="M397.75,-187.88C397.75,-187.88 397.75,-140.07 397.75,-140.07"/>
<polygon fill="black" stroke="black" points="401.25,-140.07 397.75,-130.07 394.25,-140.07 401.25,-140.07"/>
</g>
<!-- offramp -->
<g id="node7" class="node">
<title>offramp</title>
<path fill="none" stroke="black" d="M122,-36C122,-36 12,-36 12,-36 6,-36 0,-30 0,-24 0,-24 0,-12 0,-12 0,-6 6,0 12,0 12,0 122,0 122,0 128,0 134,-6 134,-12 134,-12 134,-24 134,-24 134,-30 128,-36 122,-36"/>
<text text-anchor="middle" x="67" y="-21.2" font-family="Helvetica,sans-Serif" font-size="11.00">Intebix Off&#45;Ramp</text>
<text text-anchor="middle" x="67" y="-9.2" font-family="Helvetica,sans-Serif" font-size="11.00">Local accounts (T+0)</text>
</g>
<!-- gateway&#45;&gt;offramp -->
<g id="edge6" class="edge">
<title>gateway&#45;&gt;offramp</title>
<path fill="none" stroke="black" d="M275.88,-206C187.85,-206 67,-206 67,-206 67,-206 67,-46.03 67,-46.03"/>
<polygon fill="black" stroke="black" points="70.5,-46.03 67,-36.03 63.5,-46.03 70.5,-46.03"/>
</g>
<!-- compliance -->
<g id="node8" class="node">
<title>compliance</title>
<path fill="none" stroke="black" d="M310,-36C310,-36 182,-36 182,-36 176,-36 170,-30 170,-24 170,-24 170,-12 170,-12 170,-6 176,0 182,0 182,0 310,0 310,0 316,0 322,-6 322,-12 322,-12 322,-24 322,-24 322,-30 316,-36 310,-36"/>
<text text-anchor="middle" x="246" y="-21.2" font-family="Helvetica,sans-Serif" font-size="11.00">Compliance Adapter</text>
<text text-anchor="middle" x="246" y="-9.2" font-family="Helvetica,sans-Serif" font-size="11.00">KYC/KYB, limits, blacklist</text>
</g>
<!-- gateway&#45;&gt;compliance -->
<g id="edge7" class="edge">
<title>gateway&#45;&gt;compliance</title>
<path fill="none" stroke="black" d="M299,-187.97C299,-187.97 299,-46.25 299,-46.25"/>
<polygon fill="black" stroke="black" points="302.5,-46.25 299,-36.25 295.5,-46.25 302.5,-46.25"/>
</g>
<!-- telegram -->
<g id="node9" class="node">
<title>telegram</title>
<path fill="none" stroke="black" d="M528,-36C528,-36 370,-36 370,-36 364,-36 358,-30 358,-24 358,-24 358,-12 358,-12 358,-6 364,0 370,0 370,0 528,0 528,0 534,0 540,-6 540,-12 540,-12 540,-24 540,-24 540,-30 534,-36 528,-36"/>
<text text-anchor="middle" x="449" y="-21.2" font-family="Helvetica,sans-Serif" font-size="11.00">Telegram Mini&#45;Wallet</text>
<text text-anchor="middle" x="449" y="-9.2" font-family="Helvetica,sans-Serif" font-size="11.00">@username pay, invoice links</text>
</g>
<!-- db&#45;&gt;telegram -->
<g id="edge9" class="edge">
<title>db&#45;&gt;telegram</title>
<path fill="none" stroke="black" d="M420.25,-93.88C420.25,-93.88 420.25,-46.07 420.25,-46.07"/>
<polygon fill="black" stroke="black" points="423.75,-46.07 420.25,-36.07 416.75,-46.07 423.75,-46.07"/>
</g>
<!-- plugins -->
<g id="node6" class="node">
<title>plugins</title>
<path fill="none" stroke="black" d="M716,-36C716,-36 588,-36 588,-36 582,-36 576,-30 576,-24 576,-24 576,-12 576,-12 576,-6 582,0 588,0 588,0 716,0 716,0 722,0 728,-6 728,-12 728,-12 728,-24 728,-24 728,-30 722,-36 716,-36"/>
<text text-anchor="middle" x="652" y="-21.2" font-family="Helvetica,sans-Serif" font-size="11.00">Merchant Plugins</text>
<text text-anchor="middle" x="652" y="-9.2" font-family="Helvetica,sans-Serif" font-size="11.00">Shopify / WooCommerce</text>
</g>
<!-- plugins&#45;&gt;gateway -->
<g id="edge5" class="edge">
<title>plugins&#45;&gt;gateway</title>
<path fill="none" stroke="black" d="M652,-36.03C652,-83.08 652,-206 652,-206 652,-206 466.1,-206 466.1,-206"/>
<polygon fill="black" stroke="black" points="466.1,-202.5 456.1,-206 466.1,-209.5 466.1,-202.5"/>
</g>
<!-- compliance&#45;&gt;telegram -->
<g id="edge8" class="edge">
<title>compliance&#45;&gt;telegram</title>
<path fill="none" stroke="black" d="M322.17,-18C322.17,-18 347.68,-18 347.68,-18"/>
<polygon fill="black" stroke="black" points="347.68,-21.5 357.68,-18 347.68,-14.5 347.68,-21.5"/>
</g>
</g>
</svg>
